# xmcd
#
# Track frame offsets: 
#        150
#        14617
#        29361
#        53232
#        76316
#        96903
#        117013
#        140416
#        162434
#        175366
#        211030
#        235351
#        253711
#        274685
#
# Disc length: 4044 seconds
#
# Revision: 0
# Processed by: cddbd v1.5.2PL0 Copyright (c) Steve Scherf et al.
# Submitted via: ExactAudioCopyFreeDBPlugin 1.0
#
DISCID=be0fca0e
DTITLE=Backstage Band - Music To Grow Hair To
DYEAR=2017
DGENRE=Blues
TTITLE0=My Idea Of Fun
TTITLE1=Something On Your Mind
TTITLE2=Honey You Don't Know
TTITLE3=Out Of My Head
TTITLE4=Whatever Rocks Your Boat
TTITLE5=Bruises
TTITLE6=Don't Ask Why
TTITLE7=Carry Me Home
TTITLE8=Shoot That Blonde
TTITLE9=A Mouth That Never Spoke
TTITLE10=Analog Woman Blues
TTITLE11=I'd Rather Have You (feat. Paulie Cerra)
TTITLE12=Walkin'
TTITLE13=What It Takes To Fly
EXTD=
EXTT0=
EXTT1=
EXTT2=
EXTT3=
EXTT4=
EXTT5=
EXTT6=
EXTT7=
EXTT8=
EXTT9=
EXTT10=
EXTT11=
EXTT12=
EXTT13=
PLAYORDER=
